<svg width="362" height="364" viewBox="0 0 362 364" fill="none" xmlns="http://www.w3.org/2000/svg">
<g clip-path="url(#clip0_16_768)">
<path d="M180.556 79.0929V363.5L174.339 358.04L135.385 323.632L140.334 283.384L141.222 275.892L161.396 113.882L142.998 86.33C152.768 82.394 163.3 79.9816 174.339 79.2198C176.369 79.2198 178.399 79.0929 180.556 79.0929Z" fill="#55BFFF"/>
<path d="M225.727 323.759L225.219 324.267L187.788 357.279L180.556 363.627V79.2198C180.683 79.2198 180.937 79.2198 181.063 79.2198C183.347 79.2198 185.504 79.3468 187.788 79.4738C198.447 80.1086 208.724 82.521 218.24 86.203L199.715 114.136L219.89 276.527L220.778 283.891L225.727 323.759Z" fill="#0A9DE7"/>
<path d="M329.01 200.22C325.204 230.692 312.261 258.244 293.102 280.209L297.797 297.731L280.287 293.033C266.71 305.095 250.977 314.745 233.72 321.347L228.645 280.59C265.314 262.815 290.691 225.232 290.691 181.683C290.691 138.641 265.949 101.312 229.787 83.4098C227.376 82.1401 224.965 81.1243 222.428 80.1086C211.642 75.6647 199.969 72.9984 187.788 72.2366C185.504 72.1097 183.347 71.9827 181.063 71.9827C180.937 71.9827 180.683 71.9827 180.556 71.9827C178.526 71.9827 176.369 71.9827 174.339 72.2366C161.904 72.9984 149.977 75.7917 138.938 80.3625C136.654 81.2513 134.497 82.2671 132.34 83.4098C96.1781 101.312 71.4357 138.641 71.4357 181.683C71.4357 225.232 96.8125 262.815 133.482 280.59L128.407 321.347C112.039 315.125 97.0662 306.238 83.9972 295.065L66.2334 299.762L70.9281 282.368C50.8805 260.402 37.177 232.343 33.1167 201.363L0 182.063L32.9898 163.018C36.7964 132.546 49.7385 104.994 69.0249 83.0289L64.3302 65.5073L81.8402 70.2051C103.537 50.7791 131.071 37.5745 161.396 33.6385L180.556 0.5L199.589 33.5115C230.041 37.3206 257.574 50.2713 279.525 69.5703L297.035 64.8725L292.341 82.394C311.754 104.105 324.95 131.657 328.883 162.003L362 181.175L329.01 200.22Z" fill="#18395B"/>
</g>
<defs>
<clipPath id="clip0_16_768">
<rect width="362" height="363" fill="white" transform="translate(0 0.5)"/>
</clipPath>
</defs>
</svg>
